<svg width="136" height="35" viewBox="0 0 136 35" fill="none" xmlns="http://www.w3.org/2000/svg">
<path d="M5.416 21.7652V1.53323C5.416 1.28122 5.272 1.17323 5.056 1.17323H0.844C0.628 1.17323 0.484 1.31722 0.484 1.53323L0.52 25.8332C0.52 26.0132 0.628 26.1572 0.844 26.1572H13.264C13.444 26.1572 13.588 26.0132 13.588 25.8332V22.1252C13.588 21.8732 13.444 21.7652 13.228 21.7652H5.416ZM29.1018 25.7972C29.1738 26.0132 29.3178 26.1572 29.5698 26.1572H32.7738C32.9898 26.1572 33.1338 26.0132 33.1338 25.7972V9.30923C33.1338 9.09323 32.9898 8.94923 32.7738 8.94923H28.8138C28.5618 8.94923 28.4538 9.09323 28.4538 9.34523V17.3732C28.2738 20.8652 26.5818 22.1612 24.8538 22.1612C22.6938 22.1612 21.5058 20.7932 21.5058 17.9132V9.34523C21.5058 9.12923 21.3618 8.94923 21.1458 8.94923H17.1498C16.9698 8.94923 16.7898 9.09323 16.7898 9.34523L16.8258 18.8852C16.8258 23.6372 19.3458 26.5892 23.1258 26.5892C25.5018 26.5892 27.4098 25.6892 28.7418 24.1772L29.1018 25.7972ZM47.1591 8.98523C46.9791 8.98523 46.8711 9.05723 46.7991 9.16523L42.0831 15.6452V0.489224C42.0831 0.309225 41.9391 0.165224 41.7591 0.165224H37.7271C37.5111 0.165224 37.3671 0.309225 37.3671 0.489224L37.4031 25.8332C37.4031 26.0132 37.5471 26.1572 37.7271 26.1572H41.7591C41.9391 26.1572 42.0831 26.0132 42.0831 25.8332V18.7412L47.9511 25.9772C48.0591 26.1212 48.2031 26.1572 48.4191 26.1572H53.6031C53.9991 26.1572 54.0711 26.0492 53.7831 25.6892L46.6551 17.1572L52.6311 9.45323C52.8831 9.12923 52.8471 8.98523 52.4511 8.98523H47.1591ZM68.1547 11.0012C66.8947 9.34523 65.1667 8.66123 63.1147 8.66123C57.9307 8.66123 54.4747 12.2612 54.4747 17.5892C54.4747 22.9172 57.9307 26.5892 63.1147 26.5532C65.3107 26.5532 67.0027 25.6532 68.1547 24.1412L68.6947 25.7972C68.7667 26.0132 68.8747 26.1572 69.0907 26.1572H72.3667C72.6187 26.1572 72.7627 25.9772 72.7627 25.7972V9.30923C72.7627 9.09323 72.6187 8.94923 72.4027 8.94923H69.1267C68.9107 8.91323 68.8027 9.09323 68.7307 9.27323L68.1547 11.0012ZM59.1187 17.5892C59.1187 14.9972 60.8107 13.3052 63.3667 13.3052C65.9227 13.3052 67.6867 14.9972 67.7227 17.5892C67.6867 20.1812 65.9587 21.8732 63.3667 21.8732C60.8827 21.8732 59.1187 20.1452 59.1187 17.5892ZM86.6891 13.8452C86.7611 13.8812 86.8331 13.8812 86.8691 13.8812C87.0491 13.8812 87.1931 13.7732 87.2291 13.6292L88.2011 9.48923C88.2731 9.27323 88.1651 9.09323 87.9491 9.02123C87.4091 8.87723 86.4731 8.58923 85.3571 8.58923C83.6291 8.58923 82.1531 9.30923 81.0371 10.3532L80.6411 9.30923C80.6051 9.16523 80.4611 8.94923 80.1371 8.94923H77.4011C77.1491 8.94923 77.0051 9.09323 77.0051 9.30923L77.0411 25.7972C77.0411 26.0132 77.1851 26.1572 77.4011 26.1572H81.3611C81.6131 26.1572 81.7571 26.0132 81.7571 25.7972V15.1772C82.3331 13.9892 83.4131 13.3412 84.4571 13.3412C85.2131 13.3412 86.2211 13.6292 86.6891 13.8452ZM95.4062 0.525226C95.4062 0.309225 95.2622 0.165224 95.0102 0.165224H91.0502C90.8342 0.165224 90.6902 0.309225 90.6902 0.525226V25.7972C90.6902 26.0132 90.8702 26.1572 91.0502 26.1572H95.0462C95.2622 26.1572 95.4062 26.0132 95.4062 25.7972V0.525226ZM103.658 16.0412C104.09 14.2412 105.422 13.0172 107.654 13.0172C109.85 13.0172 111.182 14.2412 111.614 16.0412H103.658ZM103.766 19.3892H116.186C116.402 19.4252 116.546 19.2452 116.546 19.0292C116.582 11.7572 112.982 8.62523 107.654 8.62523C102.326 8.62523 98.7618 12.2612 98.7618 17.5892C98.7618 22.9532 102.362 26.5532 107.798 26.5532C110.75 26.5172 113.162 25.8332 114.746 24.1052C114.89 23.9252 114.854 23.7092 114.71 23.5652L112.262 21.0092C112.19 20.9372 112.118 20.8652 112.01 20.8652C111.902 20.8652 111.794 20.9372 111.65 21.0452C110.93 21.6572 109.706 22.1612 108.086 22.1612C105.746 22.1612 104.306 21.0452 103.766 19.3892ZM135.655 8.94923H131.551C131.335 8.94923 131.155 9.05723 131.083 9.27323L126.763 20.2532L122.947 9.27323C122.875 9.05723 122.731 8.94923 122.515 8.94923H118.267C118.051 8.94923 117.907 9.12923 118.015 9.41723L124.531 26.0132L121.471 33.8972C121.363 34.1492 121.471 34.3652 121.759 34.3652H125.827C126.043 34.3652 126.259 34.2212 126.331 34.0412L135.943 9.41723C136.087 9.12923 135.943 8.94923 135.655 8.94923Z" fill="url(#paint0_linear)"/>
<defs>
<linearGradient id="paint0_linear" x1="0.929773" y1="15.9162" x2="135.358" y2="15.0707" gradientUnits="userSpaceOnUse">
<stop stop-color="white"/>
<stop offset="1" stop-color="#FFB8C3"/>
</linearGradient>
</defs>
</svg>
